<svg width="64" height="20" viewBox="0 0 64 20" fill="none" xmlns="http://www.w3.org/2000/svg">
<rect x="0.5" y="0.5" width="63" height="19" rx="3.5" stroke="#8C89B4"/>
<path d="M8.268 14V12.884C8.268 12.448 8.338 12.084 8.478 11.792C8.622 11.5 8.822 11.258 9.078 11.066C9.338 10.874 9.644 10.708 9.996 10.568L11.484 9.98C11.868 9.824 12.156 9.624 12.348 9.38C12.54 9.136 12.636 8.832 12.636 8.468C12.636 8.084 12.502 7.77 12.234 7.526C11.97 7.282 11.6 7.16 11.124 7.16C10.652 7.16 10.264 7.262 9.96 7.466C9.66 7.666 9.488 7.968 9.444 8.372H8.4C8.428 7.936 8.556 7.566 8.784 7.262C9.016 6.958 9.33 6.728 9.726 6.572C10.122 6.412 10.584 6.332 11.112 6.332C11.596 6.332 12.03 6.426 12.414 6.614C12.798 6.802 13.1 7.062 13.32 7.394C13.544 7.722 13.656 8.1 13.656 8.528C13.656 8.916 13.584 9.254 13.44 9.542C13.296 9.83 13.09 10.078 12.822 10.286C12.558 10.494 12.244 10.672 11.88 10.82L10.356 11.432C9.972 11.58 9.684 11.758 9.492 11.966C9.3 12.174 9.204 12.444 9.204 12.776V13.136H13.584V14H8.268ZM18.0132 14.144C17.4212 14.144 16.9032 14 16.4592 13.712C16.0192 13.424 15.6752 12.99 15.4272 12.41C15.1832 11.83 15.0612 11.104 15.0612 10.232C15.0612 9.36 15.1832 8.636 15.4272 8.06C15.6752 7.48 16.0192 7.048 16.4592 6.764C16.9032 6.476 17.4212 6.332 18.0132 6.332C18.6012 6.332 19.1172 6.476 19.5612 6.764C20.0052 7.048 20.3492 7.48 20.5932 8.06C20.8412 8.636 20.9652 9.36 20.9652 10.232C20.9652 11.104 20.8412 11.83 20.5932 12.41C20.3492 12.99 20.0052 13.424 19.5612 13.712C19.1172 14 18.6012 14.144 18.0132 14.144ZM18.0132 13.28C18.6612 13.28 19.1532 13.016 19.4892 12.488C19.8252 11.956 19.9932 11.204 19.9932 10.232C19.9932 9.26 19.8252 8.51 19.4892 7.982C19.1532 7.45 18.6612 7.184 18.0132 7.184C17.3732 7.184 16.8832 7.45 16.5432 7.982C16.2032 8.51 16.0332 9.26 16.0332 10.232C16.0332 11.204 16.2032 11.956 16.5432 12.488C16.8832 13.016 17.3732 13.28 18.0132 13.28ZM22.3422 14V12.884C22.3422 12.448 22.4122 12.084 22.5522 11.792C22.6962 11.5 22.8962 11.258 23.1522 11.066C23.4122 10.874 23.7182 10.708 24.0702 10.568L25.5582 9.98C25.9422 9.824 26.2302 9.624 26.4222 9.38C26.6142 9.136 26.7102 8.832 26.7102 8.468C26.7102 8.084 26.5762 7.77 26.3082 7.526C26.0442 7.282 25.6742 7.16 25.1982 7.16C24.7262 7.16 24.3382 7.262 24.0342 7.466C23.7342 7.666 23.5622 7.968 23.5182 8.372H22.4742C22.5022 7.936 22.6302 7.566 22.8582 7.262C23.0902 6.958 23.4042 6.728 23.8002 6.572C24.1962 6.412 24.6582 6.332 25.1862 6.332C25.6702 6.332 26.1042 6.426 26.4882 6.614C26.8722 6.802 27.1742 7.062 27.3942 7.394C27.6182 7.722 27.7302 8.1 27.7302 8.528C27.7302 8.916 27.6582 9.254 27.5142 9.542C27.3702 9.83 27.1642 10.078 26.8962 10.286C26.6322 10.494 26.3182 10.672 25.9542 10.82L24.4302 11.432C24.0462 11.58 23.7582 11.758 23.5662 11.966C23.3742 12.174 23.2782 12.444 23.2782 12.776V13.136H27.6582V14H22.3422ZM32.0874 14.144C31.4954 14.144 30.9774 14 30.5334 13.712C30.0934 13.424 29.7494 12.99 29.5014 12.41C29.2574 11.83 29.1354 11.104 29.1354 10.232C29.1354 9.36 29.2574 8.636 29.5014 8.06C29.7494 7.48 30.0934 7.048 30.5334 6.764C30.9774 6.476 31.4954 6.332 32.0874 6.332C32.6754 6.332 33.1914 6.476 33.6354 6.764C34.0794 7.048 34.4234 7.48 34.6674 8.06C34.9154 8.636 35.0394 9.36 35.0394 10.232C35.0394 11.104 34.9154 11.83 34.6674 12.41C34.4234 12.99 34.0794 13.424 33.6354 13.712C33.1914 14 32.6754 14.144 32.0874 14.144ZM32.0874 13.28C32.7354 13.28 33.2274 13.016 33.5634 12.488C33.8994 11.956 34.0674 11.204 34.0674 10.232C34.0674 9.26 33.8994 8.51 33.5634 7.982C33.2274 7.45 32.7354 7.184 32.0874 7.184C31.4474 7.184 30.9574 7.45 30.6174 7.982C30.2774 8.51 30.1074 9.26 30.1074 10.232C30.1074 11.204 30.2774 11.956 30.6174 12.488C30.9574 13.016 31.4474 13.28 32.0874 13.28Z" fill="#8C89B4"/>
<path d="M52.4465 7.45312H48.2932H44.5532C43.9132 7.45312 43.5932 8.22646 44.0465 8.67979L47.4998 12.1331C48.0532 12.6865 48.9532 12.6865 49.5065 12.1331L50.8198 10.8198L52.9598 8.67979C53.4065 8.22646 53.0865 7.45312 52.4465 7.45312Z" fill="#8C89B4"/>
<path d="M52.4465 7.45312H48.2932H44.5532C43.9132 7.45312 43.5932 8.22646 44.0465 8.67979L47.4998 12.1331C48.0532 12.6865 48.9532 12.6865 49.5065 12.1331L50.8198 10.8198L52.9598 8.67979C53.4065 8.22646 53.0865 7.45312 52.4465 7.45312Z" fill="#8C89B4"/>
<path d="M52.4465 7.45312H48.2932H44.5532C43.9132 7.45312 43.5932 8.22646 44.0465 8.67979L47.4998 12.1331C48.0532 12.6865 48.9532 12.6865 49.5065 12.1331L50.8198 10.8198L52.9598 8.67979C53.4065 8.22646 53.0865 7.45312 52.4465 7.45312Z" fill="#8C89B4"/>
<path d="M52.4465 7.45312H48.2932H44.5532C43.9132 7.45312 43.5932 8.22646 44.0465 8.67979L47.4998 12.1331C48.0532 12.6865 48.9532 12.6865 49.5065 12.1331L50.8198 10.8198L52.9598 8.67979C53.4065 8.22646 53.0865 7.45312 52.4465 7.45312Z" fill="#8C89B4"/>
<path d="M52.4465 7.45312H48.2932H44.5532C43.9132 7.45312 43.5932 8.22646 44.0465 8.67979L47.4998 12.1331C48.0532 12.6865 48.9532 12.6865 49.5065 12.1331L50.8198 10.8198L52.9598 8.67979C53.4065 8.22646 53.0865 7.45312 52.4465 7.45312Z" fill="#8C89B4"/>
<path d="M52.4465 7.45312H48.2932H44.5532C43.9132 7.45312 43.5932 8.22646 44.0465 8.67979L47.4998 12.1331C48.0532 12.6865 48.9532 12.6865 49.5065 12.1331L50.8198 10.8198L52.9598 8.67979C53.4065 8.22646 53.0865 7.45312 52.4465 7.45312Z" fill="#8C89B4"/>
</svg>
