<svg width="292" height="26" viewBox="0 0 292 26" fill="none" xmlns="http://www.w3.org/2000/svg">
<path d="M3.17019 22.4648L0.962188 5.66484H4.10619L5.73819 20.2568H6.17019L8.28219 5.66484H13.7542L15.8662 20.2568H16.2982L17.9302 5.66484H21.0742L18.8662 22.4648H13.3942L11.2342 7.53684H10.8022L8.64219 22.4648H3.17019ZM28.7681 22.8008C27.5841 22.8008 26.5361 22.5528 25.6241 22.0568C24.7281 21.5448 24.0241 20.8328 23.5121 19.9208C23.0161 18.9928 22.7681 17.9048 22.7681 16.6568V16.3688C22.7681 15.1208 23.0161 14.0408 23.5121 13.1288C24.0081 12.2008 24.7041 11.4888 25.6001 10.9928C26.4961 10.4808 27.5361 10.2248 28.7201 10.2248C29.8881 10.2248 30.9041 10.4888 31.7681 11.0168C32.6321 11.5288 33.3041 12.2488 33.7841 13.1768C34.2641 14.0888 34.5041 15.1528 34.5041 16.3688V17.4008H25.8401C25.8721 18.2168 26.1761 18.8808 26.7521 19.3928C27.3281 19.9048 28.0321 20.1608 28.8641 20.1608C29.7121 20.1608 30.3361 19.9768 30.7361 19.6088C31.1361 19.2408 31.4401 18.8328 31.6481 18.3848L34.1201 19.6808C33.8961 20.0968 33.5681 20.5528 33.1361 21.0488C32.7201 21.5288 32.1601 21.9448 31.4561 22.2968C30.7521 22.6328 29.8561 22.8008 28.7681 22.8008ZM25.8641 15.1448H31.4321C31.3681 14.4568 31.0881 13.9048 30.5921 13.4888C30.1121 13.0728 29.4801 12.8648 28.6961 12.8648C27.8801 12.8648 27.2321 13.0728 26.7521 13.4888C26.2721 13.9048 25.9761 14.4568 25.8641 15.1448ZM37.1956 22.4648V5.66484H40.2196V22.4648H37.1956ZM49.1626 22.8008C48.0106 22.8008 46.9626 22.5608 46.0186 22.0808C45.0906 21.6008 44.3546 20.9048 43.8106 19.9928C43.2666 19.0808 42.9946 17.9768 42.9946 16.6808V16.3448C42.9946 15.0488 43.2666 13.9448 43.8106 13.0328C44.3546 12.1208 45.0906 11.4248 46.0186 10.9448C46.9626 10.4648 48.0106 10.2248 49.1626 10.2248C50.2986 10.2248 51.2746 10.4248 52.0906 10.8248C52.9066 11.2248 53.5626 11.7768 54.0586 12.4808C54.5706 13.1688 54.9066 13.9528 55.0666 14.8328L52.1386 15.4568C52.0746 14.9768 51.9306 14.5448 51.7066 14.1608C51.4826 13.7768 51.1626 13.4728 50.7466 13.2488C50.3466 13.0248 49.8426 12.9128 49.2346 12.9128C48.6266 12.9128 48.0746 13.0488 47.5786 13.3208C47.0986 13.5768 46.7146 13.9688 46.4266 14.4968C46.1546 15.0088 46.0186 15.6408 46.0186 16.3928V16.6328C46.0186 17.3848 46.1546 18.0248 46.4266 18.5528C46.7146 19.0648 47.0986 19.4568 47.5786 19.7288C48.0746 19.9848 48.6266 20.1128 49.2346 20.1128C50.1466 20.1128 50.8346 19.8808 51.2986 19.4168C51.7786 18.9368 52.0826 18.3128 52.2106 17.5448L55.1386 18.2408C54.9306 19.0888 54.5706 19.8648 54.0586 20.5688C53.5626 21.2568 52.9066 21.8008 52.0906 22.2008C51.2746 22.6008 50.2986 22.8008 49.1626 22.8008ZM63.2971 22.8008C62.1131 22.8008 61.0491 22.5608 60.1051 22.0808C59.1611 21.6008 58.4171 20.9048 57.8731 19.9928C57.3291 19.0808 57.0571 17.9848 57.0571 16.7048V16.3208C57.0571 15.0408 57.3291 13.9448 57.8731 13.0328C58.4171 12.1208 59.1611 11.4248 60.1051 10.9448C61.0491 10.4648 62.1131 10.2248 63.2971 10.2248C64.4811 10.2248 65.5451 10.4648 66.4891 10.9448C67.4331 11.4248 68.1771 12.1208 68.7211 13.0328C69.2651 13.9448 69.5371 15.0408 69.5371 16.3208V16.7048C69.5371 17.9848 69.2651 19.0808 68.7211 19.9928C68.1771 20.9048 67.4331 21.6008 66.4891 22.0808C65.5451 22.5608 64.4811 22.8008 63.2971 22.8008ZM63.2971 20.1128C64.2251 20.1128 64.9931 19.8168 65.6011 19.2248C66.2091 18.6168 66.5131 17.7528 66.5131 16.6328V16.3928C66.5131 15.2728 66.2091 14.4168 65.6011 13.8248C65.0091 13.2168 64.2411 12.9128 63.2971 12.9128C62.3691 12.9128 61.6011 13.2168 60.9931 13.8248C60.3851 14.4168 60.0811 15.2728 60.0811 16.3928V16.6328C60.0811 17.7528 60.3851 18.6168 60.9931 19.2248C61.6011 19.8168 62.3691 20.1128 63.2971 20.1128ZM72.3284 22.4648V10.5608H75.3044V11.8568H75.7364C75.9444 11.4568 76.2884 11.1128 76.7684 10.8248C77.2484 10.5208 77.8804 10.3688 78.6644 10.3688C79.5124 10.3688 80.1924 10.5368 80.7044 10.8728C81.2164 11.1928 81.6084 11.6168 81.8804 12.1448H82.3124C82.5844 11.6328 82.9684 11.2088 83.4644 10.8728C83.9604 10.5368 84.6644 10.3688 85.5764 10.3688C86.3124 10.3688 86.9764 10.5288 87.5684 10.8488C88.1764 11.1528 88.6564 11.6248 89.0084 12.2648C89.3764 12.8888 89.5604 13.6808 89.5604 14.6408V22.4648H86.5364V14.8568C86.5364 14.2008 86.3684 13.7128 86.0324 13.3928C85.6964 13.0568 85.2244 12.8888 84.6164 12.8888C83.9284 12.8888 83.3924 13.1128 83.0084 13.5608C82.6404 13.9928 82.4564 14.6168 82.4564 15.4328V22.4648H79.4324V14.8568C79.4324 14.2008 79.2644 13.7128 78.9284 13.3928C78.5924 13.0568 78.1204 12.8888 77.5124 12.8888C76.8244 12.8888 76.2884 13.1128 75.9044 13.5608C75.5364 13.9928 75.3524 14.6168 75.3524 15.4328V22.4648H72.3284ZM98.2368 22.8008C97.0528 22.8008 96.0048 22.5528 95.0928 22.0568C94.1968 21.5448 93.4928 20.8328 92.9808 19.9208C92.4848 18.9928 92.2368 17.9048 92.2368 16.6568V16.3688C92.2368 15.1208 92.4848 14.0408 92.9808 13.1288C93.4768 12.2008 94.1728 11.4888 95.0688 10.9928C95.9648 10.4808 97.0048 10.2248 98.1888 10.2248C99.3568 10.2248 100.373 10.4888 101.237 11.0168C102.101 11.5288 102.773 12.2488 103.253 13.1768C103.733 14.0888 103.973 15.1528 103.973 16.3688V17.4008H95.3088C95.3408 18.2168 95.6448 18.8808 96.2208 19.3928C96.7968 19.9048 97.5008 20.1608 98.3328 20.1608C99.1808 20.1608 99.8048 19.9768 100.205 19.6088C100.605 19.2408 100.909 18.8328 101.117 18.3848L103.589 19.6808C103.365 20.0968 103.037 20.5528 102.605 21.0488C102.189 21.5288 101.629 21.9448 100.925 22.2968C100.221 22.6328 99.3248 22.8008 98.2368 22.8008ZM95.3328 15.1448H100.901C100.837 14.4568 100.557 13.9048 100.061 13.4888C99.5808 13.0728 98.9488 12.8648 98.1648 12.8648C97.3488 12.8648 96.7008 13.0728 96.2208 13.4888C95.7408 13.9048 95.4448 14.4568 95.3328 15.1448ZM119.91 22.8008C118.838 22.8008 118.014 22.6168 117.438 22.2488C116.862 21.8808 116.438 21.4728 116.166 21.0248H115.734V22.4648H112.758V5.66484H115.782V11.9288H116.214C116.39 11.6408 116.622 11.3688 116.91 11.1128C117.214 10.8568 117.606 10.6488 118.086 10.4888C118.582 10.3128 119.19 10.2248 119.91 10.2248C120.87 10.2248 121.758 10.4648 122.574 10.9448C123.39 11.4088 124.046 12.0968 124.542 13.0088C125.038 13.9208 125.286 15.0248 125.286 16.3208V16.7048C125.286 18.0008 125.038 19.1048 124.542 20.0168C124.046 20.9288 123.39 21.6248 122.574 22.1048C121.758 22.5688 120.87 22.8008 119.91 22.8008ZM118.998 20.1608C119.926 20.1608 120.702 19.8648 121.326 19.2728C121.95 18.6648 122.262 17.7848 122.262 16.6328V16.3928C122.262 15.2408 121.95 14.3688 121.326 13.7768C120.718 13.1688 119.942 12.8648 118.998 12.8648C118.07 12.8648 117.294 13.1688 116.67 13.7768C116.046 14.3688 115.734 15.2408 115.734 16.3928V16.6328C115.734 17.7848 116.046 18.6648 116.67 19.2728C117.294 19.8648 118.07 20.1608 118.998 20.1608ZM131.759 22.8008C130.911 22.8008 130.151 22.6568 129.479 22.3688C128.807 22.0648 128.271 21.6328 127.871 21.0728C127.487 20.4968 127.295 19.8008 127.295 18.9848C127.295 18.1688 127.487 17.4888 127.871 16.9448C128.271 16.3848 128.815 15.9688 129.503 15.6968C130.207 15.4088 131.007 15.2648 131.903 15.2648H135.167V14.5928C135.167 14.0328 134.991 13.5768 134.639 13.2248C134.287 12.8568 133.727 12.6728 132.959 12.6728C132.207 12.6728 131.647 12.8488 131.279 13.2008C130.911 13.5368 130.671 13.9768 130.559 14.5208L127.775 13.5848C127.967 12.9768 128.271 12.4248 128.687 11.9288C129.119 11.4168 129.687 11.0088 130.391 10.7048C131.111 10.3848 131.983 10.2248 133.007 10.2248C134.575 10.2248 135.815 10.6168 136.727 11.4008C137.639 12.1848 138.095 13.3208 138.095 14.8088V19.2488C138.095 19.7288 138.319 19.9688 138.767 19.9688H139.727V22.4648H137.711C137.119 22.4648 136.631 22.3208 136.247 22.0328C135.863 21.7448 135.671 21.3608 135.671 20.8808V20.8568H135.215C135.151 21.0488 135.007 21.3048 134.783 21.6248C134.559 21.9288 134.207 22.2008 133.727 22.4408C133.247 22.6808 132.591 22.8008 131.759 22.8008ZM132.287 20.3528C133.135 20.3528 133.823 20.1208 134.351 19.6568C134.895 19.1768 135.167 18.5448 135.167 17.7608V17.5208H132.119C131.559 17.5208 131.119 17.6408 130.799 17.8808C130.479 18.1208 130.319 18.4568 130.319 18.8888C130.319 19.3208 130.487 19.6728 130.823 19.9448C131.159 20.2168 131.647 20.3528 132.287 20.3528ZM147.295 22.8008C146.143 22.8008 145.095 22.5608 144.151 22.0808C143.223 21.6008 142.487 20.9048 141.943 19.9928C141.399 19.0808 141.127 17.9768 141.127 16.6808V16.3448C141.127 15.0488 141.399 13.9448 141.943 13.0328C142.487 12.1208 143.223 11.4248 144.151 10.9448C145.095 10.4648 146.143 10.2248 147.295 10.2248C148.431 10.2248 149.407 10.4248 150.223 10.8248C151.039 11.2248 151.695 11.7768 152.191 12.4808C152.703 13.1688 153.039 13.9528 153.199 14.8328L150.271 15.4568C150.207 14.9768 150.063 14.5448 149.839 14.1608C149.615 13.7768 149.295 13.4728 148.879 13.2488C148.479 13.0248 147.975 12.9128 147.367 12.9128C146.759 12.9128 146.207 13.0488 145.711 13.3208C145.231 13.5768 144.847 13.9688 144.559 14.4968C144.287 15.0088 144.151 15.6408 144.151 16.3928V16.6328C144.151 17.3848 144.287 18.0248 144.559 18.5528C144.847 19.0648 145.231 19.4568 145.711 19.7288C146.207 19.9848 146.759 20.1128 147.367 20.1128C148.279 20.1128 148.967 19.8808 149.431 19.4168C149.911 18.9368 150.215 18.3128 150.343 17.5448L153.271 18.2408C153.063 19.0888 152.703 19.8648 152.191 20.5688C151.695 21.2568 151.039 21.8008 150.223 22.2008C149.407 22.6008 148.431 22.8008 147.295 22.8008ZM155.766 22.4648V5.66484H158.79V14.9528H159.222L163.158 10.5608H167.094L161.598 16.3208L167.286 22.4648H163.398L159.222 17.7368H158.79V22.4648H155.766ZM169.529 25.9928V24.3608H170.465C171.201 24.3608 171.569 23.9928 171.569 23.2568V22.4888H171.161C170.521 22.4888 169.985 22.2968 169.553 21.9128C169.137 21.5288 168.929 21.0408 168.929 20.4488C168.929 19.8088 169.137 19.2888 169.553 18.8888C169.985 18.4888 170.521 18.2888 171.161 18.2888C171.817 18.2888 172.353 18.4968 172.769 18.9128C173.185 19.3128 173.393 19.8568 173.393 20.5448V23.3048C173.393 25.0968 172.497 25.9928 170.705 25.9928H169.529ZM180.205 22.4648L184.621 5.66484H190.141L194.557 22.4648H191.293L190.381 18.7688H184.381L183.469 22.4648H180.205ZM185.125 15.8408H189.637L187.597 7.65684H187.165L185.125 15.8408ZM196.664 22.4648V5.66484H199.688V22.4648H196.664ZM203.039 22.4648V10.5608H206.063V22.4648H203.039ZM204.551 9.16884C204.007 9.16884 203.543 8.99284 203.159 8.64084C202.791 8.28884 202.607 7.82484 202.607 7.24884C202.607 6.67284 202.791 6.20884 203.159 5.85684C203.543 5.50484 204.007 5.32884 204.551 5.32884C205.111 5.32884 205.575 5.50484 205.943 5.85684C206.311 6.20884 206.495 6.67284 206.495 7.24884C206.495 7.82484 206.311 8.28884 205.943 8.64084C205.575 8.99284 205.111 9.16884 204.551 9.16884ZM215.412 22.4648V5.66484H222.708C223.764 5.66484 224.684 5.84884 225.468 6.21684C226.252 6.58484 226.86 7.10484 227.292 7.77684C227.724 8.44884 227.94 9.24084 227.94 10.1528V10.4408C227.94 11.4488 227.7 12.2648 227.22 12.8888C226.74 13.5128 226.148 13.9688 225.444 14.2568V14.6888C226.084 14.7208 226.58 14.9448 226.932 15.3608C227.284 15.7608 227.46 16.2968 227.46 16.9688V22.4648H224.292V17.4248C224.292 17.0408 224.188 16.7288 223.98 16.4888C223.788 16.2488 223.46 16.1288 222.996 16.1288H218.58V22.4648H215.412ZM218.58 13.2488H222.372C223.124 13.2488 223.708 13.0488 224.124 12.6488C224.556 12.2328 224.772 11.6888 224.772 11.0168V10.7768C224.772 10.1048 224.564 9.56884 224.148 9.16884C223.732 8.75284 223.14 8.54484 222.372 8.54484H218.58V13.2488ZM230.672 22.4648V10.5608H233.696V22.4648H230.672ZM232.184 9.16884C231.64 9.16884 231.176 8.99284 230.792 8.64084C230.424 8.28884 230.24 7.82484 230.24 7.24884C230.24 6.67284 230.424 6.20884 230.792 5.85684C231.176 5.50484 231.64 5.32884 232.184 5.32884C232.744 5.32884 233.208 5.50484 233.576 5.85684C233.944 6.20884 234.128 6.67284 234.128 7.24884C234.128 7.82484 233.944 8.28884 233.576 8.64084C233.208 8.99284 232.744 9.16884 232.184 9.16884ZM240.743 22.8008C239.895 22.8008 239.135 22.6568 238.463 22.3688C237.791 22.0648 237.255 21.6328 236.855 21.0728C236.471 20.4968 236.279 19.8008 236.279 18.9848C236.279 18.1688 236.471 17.4888 236.855 16.9448C237.255 16.3848 237.799 15.9688 238.487 15.6968C239.191 15.4088 239.991 15.2648 240.887 15.2648H244.151V14.5928C244.151 14.0328 243.975 13.5768 243.623 13.2248C243.271 12.8568 242.711 12.6728 241.943 12.6728C241.191 12.6728 240.631 12.8488 240.263 13.2008C239.895 13.5368 239.655 13.9768 239.543 14.5208L236.759 13.5848C236.951 12.9768 237.255 12.4248 237.671 11.9288C238.103 11.4168 238.671 11.0088 239.375 10.7048C240.095 10.3848 240.967 10.2248 241.991 10.2248C243.559 10.2248 244.799 10.6168 245.711 11.4008C246.623 12.1848 247.079 13.3208 247.079 14.8088V19.2488C247.079 19.7288 247.303 19.9688 247.751 19.9688H248.711V22.4648H246.695C246.103 22.4648 245.615 22.3208 245.231 22.0328C244.847 21.7448 244.655 21.3608 244.655 20.8808V20.8568H244.199C244.135 21.0488 243.991 21.3048 243.767 21.6248C243.543 21.9288 243.191 22.2008 242.711 22.4408C242.231 22.6808 241.575 22.8008 240.743 22.8008ZM241.271 20.3528C242.119 20.3528 242.807 20.1208 243.335 19.6568C243.879 19.1768 244.151 18.5448 244.151 17.7608V17.5208H241.103C240.543 17.5208 240.103 17.6408 239.783 17.8808C239.463 18.1208 239.303 18.4568 239.303 18.8888C239.303 19.3208 239.471 19.6728 239.807 19.9448C240.143 20.2168 240.631 20.3528 241.271 20.3528ZM250.49 22.4648V18.8648L257.018 13.4408V13.0568H250.73V10.5608H260.33V14.1608L253.802 19.5848V19.9688H260.522V22.4648H250.49ZM267.758 24.1448H291.758V0.144844H267.758V24.1448Z" fill="white"/>
</svg>
